<svg preserveAspectRatio="none" width="100%" height="100%" overflow="visible" style="display: block;" viewBox="0 0 59.514 43.3289" fill="none" xmlns="http://www.w3.org/2000/svg">
<path id="Vector" d="M10.4529 20.7372L8.59835 21.4116C9.49752 20.6248 10.4529 20.0628 11.4645 19.7256C12.476 19.276 13.7686 19.0512 15.3421 19.0512C18.3769 19.0512 20.9058 20.0628 22.9289 22.086C25.0645 24.1091 26.1322 26.9752 26.1322 30.6843C26.1322 34.3934 24.9521 37.4281 22.5917 39.7884C20.3438 42.1488 17.3653 43.3289 13.6562 43.3289C9.72231 43.3289 6.46281 41.8678 3.87769 38.9455C1.29256 35.9107 0 31.8645 0 26.8066C0 19.6132 2.13554 13.5438 6.40661 8.59835C10.6777 3.6529 16.1851 0.78678 22.9289 0V8.09257C19.3322 8.87934 16.3537 10.3405 13.9934 12.476C11.6331 14.6116 10.4529 17.3653 10.4529 20.7372ZM43.8347 20.7372L41.9802 21.4116C42.8793 20.6248 43.8347 20.0628 44.8463 19.7256C45.8578 19.276 47.0942 19.0512 48.5554 19.0512C51.7025 19.0512 54.2876 20.0628 56.3107 22.086C58.4463 24.1091 59.514 26.9752 59.514 30.6843C59.514 34.3934 58.3339 37.4281 55.9735 39.7884C53.7256 42.1488 50.7471 43.3289 47.038 43.3289C42.9917 43.3289 39.676 41.8678 37.0909 38.9455C34.6182 35.9107 33.3818 31.8645 33.3818 26.8066C33.3818 19.6132 35.5173 13.5438 39.7884 8.59835C44.0595 3.6529 49.5669 0.78678 56.3107 0V8.09257C52.6016 8.87934 49.5669 10.3405 47.2066 12.476C44.9587 14.6116 43.8347 17.3653 43.8347 20.7372Z" fill="var(--fill-0, #35C9BB)"/>
</svg>
