<svg width="30" height="30" viewBox="0 0 30 30" fill="none" xmlns="http://www.w3.org/2000/svg">
<path d="M16.5938 5.34375L15.6094 6.70312C15.4688 6.9375 15.2344 7.03125 15 7.03125C14.7656 7.03125 14.5312 6.89062 14.3906 6.70312L13.4062 5.34375C13.0312 4.82812 12.4219 4.5 11.7656 4.5C10.6406 4.5 9.75 5.39062 9.75 6.51562C9.75 7.78125 10.5469 8.95312 11.5312 10.0781C12.6562 11.2969 13.9688 12.4219 14.8594 13.0781C14.9531 13.125 15.0469 13.125 15.1406 13.0781C16.0312 12.4219 17.3906 11.2969 18.4688 10.0781C19.4531 8.95312 20.25 7.78125 20.25 6.51562C20.25 5.39062 19.3594 4.5 18.2344 4.5C17.5781 4.5 17.0156 4.82812 16.6406 5.34375H16.5938ZM18.2344 3C20.2031 3 21.75 4.59375 21.75 6.51562C21.75 8.39062 20.5781 9.9375 19.5938 11.0625C18.4219 12.4219 16.9688 13.5938 16.0312 14.2969C15.4219 14.7188 14.5781 14.7188 13.9688 14.2969C13.0312 13.5938 11.625 12.4219 10.4062 11.0625C9.42188 9.9375 8.25 8.39062 8.25 6.51562C8.25 4.59375 9.84375 3 11.7656 3C12.8906 3 13.9688 3.5625 14.625 4.45312L15 5.01562L15.375 4.45312C16.0781 3.5625 17.1094 3 18.2344 3ZM3 6C4.64062 6 6 7.35938 6 9V14.8125C6 15.0469 6 15.2344 6.04688 15.4688C6.14062 15.3281 6.28125 15.1875 6.42188 15.0469C7.40625 14.0156 9.09375 14.0156 10.0781 15.0469L14.3906 19.3125C14.625 19.5469 14.8125 19.8281 15 20.1094C15.1875 19.8281 15.375 19.5469 15.6094 19.3125L19.9219 15.0469C20.9062 14.0156 22.5938 14.0156 23.5781 15.0469C23.7188 15.1875 23.8594 15.3281 23.9531 15.4688C24 15.2344 24 15.0469 24 14.8125V9C24 7.35938 25.3594 6 27 6C28.6406 6 30 7.35938 30 9V19.125C30 20.5312 29.4375 21.8438 28.4531 22.8281L24.5156 26.7656C24.2344 27.0938 23.7656 27.0938 23.4844 26.7656C23.2031 26.4844 23.2031 26.0156 23.4844 25.7344L27.4219 21.7969C28.125 21.0938 28.5 20.1094 28.5 19.125V9C28.5 8.15625 27.8438 7.5 27 7.5C26.1562 7.5 25.5 8.15625 25.5 9V14.8125C25.5 16.0781 24.9844 17.2969 24.0938 18.2344C24.0469 18.2812 23.1562 19.125 21.5156 20.7656L20.7656 21.5156C20.4844 21.8438 20.0156 21.8438 19.7344 21.5156C19.4531 21.2344 19.4531 20.7656 19.7344 20.4844L20.4844 19.7344L22.5469 17.6719C22.9688 17.25 22.9688 16.5469 22.5469 16.0781C22.125 15.6562 21.4219 15.6562 20.9531 16.0781L16.6875 20.3906C16.0781 20.9531 15.75 21.7969 15.75 22.6406V26.25C15.75 26.6719 15.4219 27 15 27C14.5781 27 14.25 26.6719 14.25 26.25V22.6406C14.25 21.7969 13.9219 20.9531 13.3125 20.3906L9.04688 16.0781C8.625 15.6562 7.92188 15.6562 7.45312 16.0781C7.03125 16.5469 7.03125 17.25 7.45312 17.6719L10.2656 20.4844C10.5938 20.7656 10.5938 21.2344 10.2656 21.5156C9.98438 21.8438 9.51562 21.8438 9.23438 21.5156L8.48438 20.7656L6.42188 18.7031L5.90625 18.2344C5.01562 17.2969 4.5 16.0781 4.5 14.8125V9C4.5 8.15625 3.84375 7.5 3 7.5C2.15625 7.5 1.5 8.15625 1.5 9V19.125C1.5 20.1094 1.875 21.0938 2.57812 21.7969L6.51562 25.7344C6.84375 26.0156 6.84375 26.4844 6.51562 26.7656C6.23438 27.0938 5.76562 27.0938 5.48438 26.7656L1.54688 22.8281C0.5625 21.8438 0 20.5312 0 19.125V9C0 7.35938 1.35938 6 3 6Z" fill="#35C9BB"/>
</svg>
