<svg width="30" height="30" viewBox="0 0 30 30" fill="none" xmlns="http://www.w3.org/2000/svg">
<path d="M16.125 8.34375V21.6094L16.5469 21.4219C18.75 20.6719 21.0469 20.25 23.3906 20.25H26.25V6.75H23.3906C21.5625 6.75 19.7812 7.07812 18.0938 7.6875L16.125 8.34375ZM13.875 21.6094V8.34375L11.9531 7.6875C10.2188 7.07812 8.4375 6.75 6.65625 6.75H3.75V20.25H6.65625C8.95312 20.25 11.25 20.6719 13.4531 21.4219L13.875 21.6094ZM15 6.375L17.2969 5.53125C19.2656 4.875 21.3281 4.5 23.3906 4.5H26.25C27.5156 4.5 28.5 5.53125 28.5 6.75V20.25C28.5 21.5156 27.5156 22.5 26.25 22.5H23.3906C21.3281 22.5 19.2656 22.875 17.2969 23.5312L15.5156 24.1875C15.1875 24.3281 14.8125 24.3281 14.4844 24.1875L12.7031 23.5312C10.7344 22.875 8.71875 22.5 6.65625 22.5H3.75C2.53125 22.5 1.5 21.5156 1.5 20.25V6.75C1.5 5.53125 2.53125 4.5 3.75 4.5H6.65625C8.71875 4.5 10.7344 4.875 12.7031 5.53125L15 6.375ZM1.5 25.875C1.5 25.2656 2.01562 24.75 2.625 24.75H5.8125C7.54688 24.75 9.23438 24.9844 10.9219 25.4531L14.8594 26.5312C14.9062 26.5781 15 26.5781 15.0938 26.5312L16.9219 25.875C18.9844 25.125 21.1875 24.75 23.3906 24.75H27.375C27.9844 24.75 28.5 25.2656 28.5 25.875C28.5 26.4844 27.9844 27 27.375 27H23.3906C21.4219 27 19.5 27.3281 17.6719 27.9844L15.8438 28.6406C15.3281 28.8281 14.7656 28.875 14.25 28.6875L10.3125 27.6094C8.85938 27.1875 7.3125 27 5.8125 27H2.625C2.01562 27 1.5 26.4844 1.5 25.875Z" fill="#35C9BB"/>
</svg>
