<svg width="30" height="30" viewBox="0 0 30 30" fill="none" xmlns="http://www.w3.org/2000/svg">
<path d="M24.8438 3.84375C25.2656 4.03125 25.5 4.45312 25.5 4.875V25.125C25.5 25.5469 25.2656 25.9688 24.8438 26.1562C24.4688 26.3438 24 26.25 23.6719 26.0156L21.0469 23.8125C19.0781 22.2188 16.7344 21.2812 14.25 21.0469V24.75C14.25 26.0156 13.2656 27 12 27H9.75C8.53125 27 7.5 26.0156 7.5 24.75V20.8125C4.92188 20.1562 3 17.8125 3 15C3 11.6719 5.67188 9 9 9H13.1719C16.0312 9 18.7969 8.01562 21.0469 6.1875L23.6719 4.03125C24 3.75 24.4688 3.65625 24.8438 3.84375ZM14.25 18.75V18.7969C17.25 19.0312 20.1094 20.1562 22.4531 22.0781L23.25 22.7344V7.26562L22.4531 7.92188C20.1094 9.84375 17.25 10.9688 14.25 11.2031V18.75ZM12 21H9.75V24.75H12V21ZM9 11.25C6.9375 11.25 5.25 12.9375 5.25 15C5.25 17.0625 6.9375 18.75 9 18.75H12V11.25H9Z" fill="#35C9BB"/>
</svg>
