<svg width="30" height="30" viewBox="0 0 30 30" fill="none" xmlns="http://www.w3.org/2000/svg">
<path d="M23.6719 5.76562C23.25 5.34375 22.5 5.34375 22.0781 5.76562L20.7188 7.125L22.875 9.28125L24.2344 7.92188C24.7031 7.5 24.7031 6.75 24.2344 6.32812L23.6719 5.76562ZM12.8438 15C12.7031 15.1406 12.6094 15.3281 12.5625 15.5156L11.7656 18.2344L14.4844 17.4375C14.6719 17.3906 14.8594 17.2969 15 17.1562L21.2812 10.875L19.125 8.71875L12.8438 15ZM20.4844 4.17188C21.7969 2.85938 23.9531 2.85938 25.2656 4.17188L25.8281 4.73438C27.1406 6.04688 27.1406 8.20312 25.8281 9.51562L16.5938 18.75C16.1719 19.1719 15.6562 19.4531 15.1406 19.5938L10.4531 20.9531C10.0312 21.0469 9.60938 20.9531 9.32812 20.6719C9.04688 20.3906 8.95312 19.9688 9.04688 19.5469L10.4062 14.8594C10.5469 14.3438 10.8281 13.8281 11.25 13.4062L20.4844 4.17188ZM7.125 6H12.375C12.9844 6 13.5 6.51562 13.5 7.125C13.5 7.73438 12.9844 8.25 12.375 8.25H7.125C6.09375 8.25 5.25 9.09375 5.25 10.125V22.875C5.25 23.9062 6.09375 24.75 7.125 24.75H19.875C20.9062 24.75 21.75 23.9062 21.75 22.875V17.625C21.75 17.0156 22.2656 16.5 22.875 16.5C23.4844 16.5 24 17.0156 24 17.625V22.875C24 25.1719 22.1719 27 19.875 27H7.125C4.82812 27 3 25.1719 3 22.875V10.125C3 7.82812 4.82812 6 7.125 6Z" fill="#35C9BB"/>
</svg>
