<svg width="30" height="30" viewBox="0 0 30 30" fill="none" xmlns="http://www.w3.org/2000/svg">
<path d="M9 6V14.3438C9.23438 14.2969 9.51562 14.25 9.75 14.25H10.5V6C10.5 5.57812 10.1719 5.25 9.75 5.25C9.32812 5.25 9 5.57812 9 6ZM9.75 16.5C8.90625 16.5 8.25 17.1562 8.25 18V19.125C8.25 22.2188 10.7812 24.75 13.875 24.75H16.125C18.6094 24.75 20.6719 23.1562 21.4219 20.9531C21.2812 21 21.1406 21 21 21C20.0625 21 19.2188 20.5781 18.6562 19.875C18.2344 20.1094 17.7656 20.25 17.25 20.25C16.5469 20.25 15.8906 20.0156 15.375 19.5938C14.8594 20.0156 14.2031 20.25 13.5 20.25H11.625C11.0156 20.25 10.5 19.7344 10.5 19.125C10.5 18.5156 11.0156 18 11.625 18H13.5C13.9219 18 14.25 17.6719 14.25 17.25C14.25 16.8281 13.9219 16.5 13.5 16.5H9.75ZM6 18C6 17.1562 6.28125 16.3594 6.75 15.75V6C6.75 4.35938 8.10938 3 9.75 3C11.3906 3 12.75 4.35938 12.75 6V9.84375C12.9844 9.79688 13.2656 9.75 13.5 9.75C14.6719 9.75 15.7031 10.4531 16.2188 11.4375C16.5469 11.2969 16.875 11.25 17.25 11.25C18.1875 11.25 19.0312 11.6719 19.5938 12.375C20.0156 12.1406 20.4844 12 21 12C22.6406 12 24 13.3594 24 15V19.125C24 23.4844 20.4844 27 16.125 27H13.875C9.51562 27 6 23.4844 6 19.125V18ZM21.75 15C21.75 14.5781 21.4219 14.25 21 14.25C20.5781 14.25 20.25 14.5781 20.25 15V18C20.25 18.4219 20.5781 18.75 21 18.75C21.4219 18.75 21.75 18.4219 21.75 18V15ZM13.5 14.25C13.7812 14.25 14.0156 14.2969 14.25 14.3438V12.75C14.25 12.3281 13.9219 12 13.5 12C13.0781 12 12.75 12.3281 12.75 12.75V14.25H13.5ZM16.5 15.375V17.25C16.5 17.6719 16.8281 18 17.25 18C17.6719 18 18 17.6719 18 17.25V14.25C18 13.8281 17.6719 13.5 17.25 13.5C16.8281 13.5 16.5 13.8281 16.5 14.25V15.375Z" fill="#35C9BB"/>
</svg>
