<svg width="28" height="27" viewBox="0 0 28 27" fill="none" xmlns="http://www.w3.org/2000/svg">
<path d="M15 15.75C16.6406 15.75 18 17.1094 18 18.75C18 19.0312 17.9531 19.2656 17.9062 19.5H18.4219L21.7031 17.25L21.9844 17.0625C23.5312 16.2656 25.4531 16.7344 26.3906 18.2812L26.5312 18.5625C27.1875 19.9219 26.8125 21.5625 25.6875 22.5L25.4062 22.7344L21.6562 25.2656C20.7188 25.9219 19.6406 26.25 18.4688 26.25H1.125C0.515625 26.25 0 25.7344 0 25.125C0 24.5156 0.515625 24 1.125 24H18.4688C19.1719 24 19.8281 23.8125 20.3906 23.4375L24.1406 20.8594L24.3281 20.7188C24.6094 20.4375 24.7031 20.0156 24.5625 19.6406L24.4688 19.4531C24.1875 18.9375 23.5312 18.7969 23.0625 19.0781L22.9688 19.125L19.4062 21.5625C19.2188 21.7031 18.9844 21.75 18.75 21.75H12C11.3906 21.75 10.875 21.2344 10.875 20.625C10.875 20.0156 11.3906 19.5 12 19.5H15C15.4219 19.5 15.75 19.1719 15.75 18.75C15.75 18.3281 15.4219 18 15 18H8.8125C8.4375 18 8.0625 18.0938 7.73438 18.3281L3.98438 20.8125C3.79688 20.9531 3.60938 21 3.375 21H1.125C0.515625 21 0 20.4844 0 19.875C0 19.2656 0.515625 18.75 1.125 18.75H3.04688L6.51562 16.4531C7.17188 15.9844 7.96875 15.75 8.76562 15.75H15ZM12.75 0C13.1719 0 13.5469 0.234375 13.7344 0.609375L15.4219 3.84375L18.9844 4.40625C19.4062 4.5 19.7344 4.78125 19.875 5.20312C20.0156 5.53125 19.9219 5.90625 19.7344 6.1875L19.5938 6.32812L17.0625 8.90625L17.625 12.4688C17.6719 12.8906 17.4844 13.3125 17.1562 13.5938C16.875 13.7812 16.4531 13.8281 16.125 13.7344L15.9844 13.6875L12.75 12L9.51562 13.6875C9.14062 13.875 8.67188 13.8281 8.34375 13.5938C8.01562 13.3125 7.82812 12.8906 7.875 12.4688L8.4375 8.90625L5.90625 6.32812C5.57812 6.04688 5.48438 5.57812 5.625 5.20312C5.76562 4.78125 6.09375 4.5 6.51562 4.40625L10.0781 3.84375L11.7656 0.609375L11.8125 0.46875C12.0469 0.1875 12.375 0 12.75 0ZM11.8594 5.39062C11.7188 5.67188 11.4375 5.85938 11.1562 5.95312L11.0156 6L9.04688 6.28125L10.4531 7.73438C10.6875 7.92188 10.7812 8.25 10.7812 8.53125V8.67188L10.4531 10.6406L12.2344 9.75L12.375 9.70312C12.6562 9.60938 12.9844 9.60938 13.2656 9.75L15.0469 10.6406L14.7188 8.67188C14.6719 8.34375 14.8125 7.96875 15.0469 7.73438L16.4531 6.28125L14.4844 6C14.1094 5.90625 13.8281 5.71875 13.6406 5.39062L12.75 3.60938L11.8594 5.39062Z" fill="#35C9BB"/>
</svg>
