<svg width="50" height="50" viewBox="0 0 50 50" fill="none" xmlns="http://www.w3.org/2000/svg">
<path d="M27.2656 3.125C28.125 3.59375 28.6719 3.90625 29.2969 4.0625C29.9219 4.21875 30.5469 4.29688 31.5625 4.29688C33.125 4.21875 34.6094 5.07812 35.3906 6.48438C35.8594 7.34375 36.25 7.89062 36.7188 8.35938C37.1094 8.75 37.6562 9.14062 38.5156 9.60938C39.9219 10.3906 40.7812 11.875 40.7812 13.5156C40.7031 14.4531 40.7812 15.1562 40.9375 15.7031C41.0938 16.3281 41.4062 16.9531 41.875 17.7344C42.7344 19.1406 42.7344 20.8594 41.875 22.2656C41.4062 23.0469 41.0938 23.6719 40.9375 24.2969C40.7812 24.8438 40.7031 25.5469 40.7812 26.4844C40.7812 28.125 39.9219 29.6094 38.5156 30.3906C37.6562 30.8594 37.1094 31.25 36.7188 31.6406C36.25 32.1094 35.8594 32.6562 35.3906 33.5156L39.2969 40.8594C39.9219 42.0312 39.4531 43.5156 38.2812 44.2188L32.3438 47.4219C31.0938 48.0469 29.6094 47.5781 28.9844 46.3281L25 38.9062L21.0938 46.3281C20.4688 47.5781 18.9062 48.0469 17.6562 47.4219L11.7969 44.2188C10.5469 43.5938 10.0781 42.0312 10.7812 40.8594L14.6094 33.5156C14.1406 32.6562 13.75 32.1094 13.3594 31.6406C12.8906 31.25 12.3438 30.8594 11.4844 30.3906C10.0781 29.6094 9.21875 28.125 9.29688 26.4844C9.29688 25.5469 9.21875 24.8438 9.0625 24.2969C8.90625 23.6719 8.67188 23.0469 8.125 22.2656C7.26562 20.8594 7.26562 19.1406 8.125 17.7344C8.67188 16.9531 8.90625 16.3281 9.0625 15.7031C9.21875 15.1562 9.29688 14.4531 9.29688 13.5156C9.21875 11.875 10.0781 10.3906 11.4844 9.60938C12.3438 9.14062 12.8906 8.75 13.3594 8.35938C13.75 7.89062 14.1406 7.34375 14.6094 6.48438C15.3906 5.07812 16.875 4.21875 18.5156 4.29688C19.4531 4.29688 20.1562 4.21875 20.7031 4.0625C21.3281 3.90625 21.9531 3.59375 22.7344 3.125C24.1406 2.26562 25.8594 2.26562 27.2656 3.125ZM33.5156 35.3125C32.8906 35.625 32.1875 35.7812 31.4844 35.7031C30.5469 35.7031 29.8438 35.7812 29.2969 35.9375C28.6719 36.0938 28.0469 36.3281 27.2656 36.875C27.1094 36.9531 26.9531 37.0312 26.875 37.1094L31.1719 45.1562L37.0312 41.9531L33.5156 35.3125ZM12.9688 42.0312L18.8281 45.1562L23.125 37.1094C23.0469 37.0312 22.8906 36.9531 22.7344 36.875C21.9531 36.4062 21.3281 36.0938 20.7031 35.9375C20.1562 35.7812 19.4531 35.7031 18.5156 35.7031C17.8125 35.7812 17.1094 35.625 16.4844 35.3125L12.9688 42.0312ZM24.0625 5.23438C23.125 5.85938 22.2656 6.25 21.4062 6.48438C20.4688 6.71875 19.5312 6.79688 18.4375 6.79688C17.7344 6.71875 17.1094 7.10938 16.7969 7.73438C16.3281 8.67188 15.7812 9.45312 15.1562 10.0781C14.4531 10.7812 13.6719 11.3281 12.7344 11.7969C12.1094 12.1094 11.7969 12.7344 11.7969 13.4375C11.7969 14.5312 11.7188 15.4688 11.4844 16.4062C11.25 17.2656 10.8594 18.125 10.2344 19.0625C9.92188 19.6094 9.92188 20.3906 10.2344 20.9375C10.8594 21.875 11.25 22.7344 11.4844 23.5938C11.7188 24.5312 11.7969 25.4688 11.7969 26.5625C11.7188 27.2656 12.1094 27.8906 12.7344 28.2031C13.6719 28.6719 14.4531 29.2188 15.0781 29.9219C15.7812 30.5469 16.3281 31.3281 16.7969 32.2656C17.1094 32.8906 17.7344 33.2812 18.4375 33.2031C19.5312 33.2031 20.4688 33.2812 21.4062 33.5156C22.2656 33.75 23.125 34.1406 24.0625 34.7656C24.6094 35.0781 25.3906 35.0781 25.9375 34.7656C26.875 34.1406 27.7344 33.75 28.5938 33.5156C29.5312 33.2812 30.4688 33.2031 31.5625 33.2812C32.2656 33.2812 32.8906 32.8906 33.2031 32.3438C33.6719 31.3281 34.2188 30.5469 34.9219 29.9219C35.5469 29.2188 36.3281 28.75 37.2656 28.2031C37.8906 27.8906 38.2812 27.2656 38.2031 26.5625C38.2031 25.4688 38.2812 24.5312 38.5156 23.6719C38.75 22.7344 39.1406 21.875 39.7656 20.9375C40.0781 20.3906 40.0781 19.6875 39.7656 19.0625C39.1406 18.125 38.75 17.2656 38.5156 16.4062C38.2812 15.4688 38.2031 14.5312 38.2031 13.4375C38.2812 12.7344 37.8906 12.1094 37.2656 11.7969C36.3281 11.3281 35.5469 10.7812 34.9219 10.1562C34.2188 9.45312 33.75 8.67188 33.2031 7.73438C32.8906 7.10938 32.2656 6.79688 31.5625 6.79688C30.4688 6.79688 29.5312 6.71875 28.5938 6.48438C27.7344 6.25 26.875 5.85938 25.9375 5.23438C25.3906 4.92188 24.6094 4.92188 24.0625 5.23438ZM31.25 20C31.25 16.5625 28.4375 13.75 25 13.75C21.5625 13.75 18.75 16.5625 18.75 20C18.75 23.4375 21.5625 26.25 25 26.25C28.4375 26.25 31.25 23.4375 31.25 20ZM25 11.25C29.8438 11.25 33.75 15.1562 33.75 20C33.75 24.8438 29.8438 28.75 25 28.75C20.1562 28.75 16.25 24.8438 16.25 20C16.25 15.1562 20.1562 11.25 25 11.25Z" fill="#35C9BB"/>
</svg>
