<svg width="50" height="50" viewBox="0 0 50 50" fill="none" xmlns="http://www.w3.org/2000/svg">
<path d="M46.3281 9.76562H46.4062L39.5312 14.7656C39.0625 15.0781 38.5156 15.0781 38.0469 14.7656L36.1719 13.5156C35.1562 12.8906 33.9844 12.5 32.7344 12.5H25.5469L15.5469 22.5L15.625 22.5781C18.0469 25 21.9531 25 24.4531 22.5781L27.8906 19.1406C28.3594 18.6719 29.1406 18.6719 29.6094 19.1406L38.5938 28.0469C39.6094 29.0625 40.1562 30.3125 40.3906 31.6406L45.3906 26.6406C45.8594 26.0938 46.6406 26.0938 47.1094 26.6406C47.6562 27.1094 47.6562 27.8906 47.1094 28.3594L38.9844 36.4844C38.9844 36.5625 38.9062 36.5625 38.9062 36.6406C38.8281 36.7188 38.6719 36.7969 38.5938 36.9531L36.3281 39.2188C34.2188 41.3281 31.3281 42.5 28.3594 42.5H21.6406C18.6719 42.5 15.7812 41.3281 13.6719 39.2188L2.89062 28.3594C2.34375 27.8906 2.34375 27.1094 2.89062 26.6406C3.35938 26.1719 4.14062 26.1719 4.60938 26.6406L15.4688 37.4219C17.1094 39.0625 19.2969 40 21.6406 40H23.8281L22.2656 38.3594C21.7188 37.8906 21.7188 37.1094 22.2656 36.6406C22.7344 36.1719 23.5156 36.1719 23.9844 36.6406L27.4219 40H28.3594C30.2344 40 31.9531 39.4531 33.4375 38.3594L31.0156 35.8594C30.5469 35.3906 30.5469 34.6094 31.0156 34.1406C31.4844 33.6719 32.2656 33.6719 32.7344 34.1406L35.3125 36.6406L36.7969 35.1562C38.2812 33.6719 38.2812 31.3281 36.7969 29.8438L28.75 21.7969L26.1719 24.375C22.8125 27.7344 17.2656 27.7344 13.8281 24.375L13.75 24.2969C12.8125 23.2812 12.8125 21.7188 13.75 20.7031L21.9531 12.5H16.875C15.2344 12.5 13.5938 13.125 12.4219 14.2969L12.1094 14.6094C11.7188 15.0781 11.0156 15.1562 10.5469 14.7656L3.67188 9.76562C3.04688 9.375 2.96875 8.59375 3.35938 8.04688C3.75 7.5 4.53125 7.34375 5.07812 7.73438L11.1719 12.1094C12.7344 10.7812 14.7656 10 16.875 10H32.7344C34.4531 10 36.1719 10.5469 37.5781 11.4844L38.75 12.1875L44.9219 7.73438C45.4688 7.34375 46.25 7.42188 46.6406 8.04688C47.0312 8.59375 46.9531 9.375 46.3281 9.76562Z" fill="#35C9BB"/>
</svg>
