<svg width="50" height="50" viewBox="0 0 50 50" fill="none" xmlns="http://www.w3.org/2000/svg">
<path d="M12.2656 5H13.75C18.6719 5 22.9688 7.89062 25 12.0312C27.0312 7.89062 31.3281 5 36.25 5H37.7344C38.9844 5 40 6.01562 40 7.26562C40 13.5938 34.8438 18.75 28.5156 18.75H26.25V23.75C26.25 24.4531 25.7031 25 25 25C24.2969 25 23.75 24.4531 23.75 23.75V18.75H21.4844C15.1562 18.75 10 13.5938 10 7.26562C10 6.01562 11.0156 5 12.2656 5ZM13.75 7.5H12.5C12.6562 12.3438 16.5625 16.25 21.4844 16.25H23.6719C23.0469 11.3281 18.8281 7.5 13.75 7.5ZM26.3281 16.25H28.5156C33.4375 16.25 37.3438 12.3438 37.5 7.5H36.25C31.1719 7.5 26.9531 11.3281 26.3281 16.25ZM14.2969 29.7656C15.3125 29.1406 16.5625 28.75 17.7344 28.75H29.375C31.7969 28.75 33.75 30.7031 33.75 33.125C33.75 33.8281 33.5938 34.4531 33.3594 35H33.75L41.1719 30.625C41.7969 30.2344 42.5781 30 43.2812 30H43.4375C45.7031 30 47.5 31.7969 47.5 34.0625C47.5 35.4688 46.7969 36.7969 45.625 37.5L36.3281 43.5938C34.8438 44.5312 33.2031 45 31.5625 45H3.75C3.04688 45 2.5 44.4531 2.5 43.75C2.5 43.0469 3.04688 42.5 3.75 42.5H31.5625C32.7344 42.5 33.9062 42.1875 34.9219 41.4844L44.2969 35.3906C44.7656 35.1562 45 34.6094 45 34.0625C45 33.2031 44.2969 32.5 43.4375 32.5H43.2812C42.9688 32.5 42.7344 32.5781 42.4219 32.7344L34.7656 37.3438C34.5312 37.4219 34.2969 37.5 34.1406 37.5H22.5C21.7969 37.5 21.25 36.9531 21.25 36.25C21.25 35.5469 21.7969 35 22.5 35H29.375C30.3906 35 31.25 34.1406 31.25 33.125C31.25 32.1094 30.3906 31.25 29.375 31.25H17.7344C17.0312 31.25 16.3281 31.4844 15.7031 31.875L9.45312 36.0156C9.21875 36.1719 8.98438 36.25 8.75 36.25H3.75C3.04688 36.25 2.5 35.7031 2.5 35C2.5 34.2969 3.04688 33.75 3.75 33.75H8.35938L14.2969 29.7656Z" fill="#35C9BB"/>
</svg>
