<svg xmlns="http://www.w3.org/2000/svg" width="260" height="260" viewBox="0 0 260 260" fill="none"><metadata><rdf:RDF xmlns:rdf="http://www.w3.org/1999/02/22-rdf-syntax-ns#" xmlns:dc="http://purl.org/dc/elements/1.1/"><rdf:Description><dc:creator>RealFaviconGenerator</dc:creator><dc:source>https://realfavicongenerator.net</dc:source></rdf:Description></rdf:RDF></metadata><g clip-path="url(#clip0_11357_3371)">
<path d="M260 130.003C260 201.8 201.8 260 129.998 260C58.1964 260 0 201.8 0 130.003C0 58.2055 58.2034 0 129.998 0C201.793 0 260 58.2003 260 130.003Z" fill="url(#paint0_radial_11357_3371)"></path>
<path d="M222.024 136.958C222.024 136.958 228.781 127.315 228.781 111.511C228.781 95.7069 222.024 86.0606 222.024 86.0606C222.024 86.0606 204.304 94.3039 145.855 95.9424C148.821 48.2051 153.978 15.5024 153.978 15.5024C153.978 15.5024 144.338 8.74414 128.531 8.74414C112.723 8.74414 103.082 15.5024 103.082 15.5024C103.082 15.5024 108.242 48.2051 111.208 95.9424C52.7608 94.3039 35.0407 86.0606 35.0407 86.0606C35.0407 86.0606 28.2842 95.6999 28.2842 111.511C28.2842 127.322 35.0407 136.958 35.0407 136.958C35.0407 136.958 53.0697 128.586 112.695 127.04C112.823 130.859 112.926 134.751 113.009 138.682C111.491 204.892 103.082 245.225 103.082 245.225C103.082 245.225 112.725 251.985 128.531 251.985C144.337 251.985 153.978 245.225 153.978 245.225C153.978 245.225 145.572 204.894 144.052 138.682C144.138 134.749 144.239 130.859 144.366 127.04C203.995 128.586 222.024 136.958 222.024 136.958Z" fill="url(#paint1_radial_11357_3371)"></path>
<path d="M217.542 119.938C217.632 119.753 217.709 119.566 217.798 119.377L217.545 119.885C217.541 119.899 217.542 119.92 217.542 119.938Z" fill="white"></path>
<path d="M149.935 180.781C150.557 180.501 151.198 180.211 151.854 179.918C151.165 180.211 150.468 180.508 149.783 180.801C149.835 180.79 149.887 180.787 149.935 180.781Z" fill="white"></path>
<path d="M218.042 118.899V118.85C217.957 119.027 217.885 119.203 217.798 119.377L218.042 118.899Z" fill="white"></path>
<path d="M161.137 98.2388C161.137 98.2388 148.887 92.9637 136.078 93.5972C136.078 93.5972 129.011 82.698 128.21 76.0444L116.387 95.2287C116.387 95.2287 105.406 98.272 95.2769 96.5968C95.2769 96.5968 104.543 109.524 111.943 113.928C111.943 113.928 111.592 134.868 110.845 136.243C110.845 136.243 126.719 124.998 129.223 124.618C129.223 124.618 142.496 131.519 146.02 135.553C146.02 135.553 146.923 124.443 144.748 112.726C144.748 112.726 150.006 104.997 161.135 98.2371L161.137 98.2388Z" fill="white"></path>
<path d="M96.0674 58.2072C96.0674 70.8112 85.8506 81.0193 73.2537 81.0193C60.6568 81.0193 50.4365 70.8112 50.4365 58.2072C50.4365 45.6032 60.655 35.3969 73.2537 35.3969C85.8524 35.3969 96.0674 45.6067 96.0674 58.2072Z" stroke="white" stroke-width="0.21"></path>
<path d="M88.571 58.2073C88.571 68.2688 80.4063 76.4213 70.3553 76.4213C60.3043 76.4213 52.1431 68.2688 52.1431 58.2073C52.1431 48.1457 60.299 39.9984 70.3553 39.9984C80.4115 39.9984 88.571 48.1492 88.571 58.2073Z" stroke="white" stroke-width="0.21"></path>
<path d="M83.1196 58.2072C83.1196 66.3771 76.494 73.0028 68.3223 73.0028C60.1506 73.0028 53.532 66.3771 53.532 58.2072C53.532 50.0372 60.1559 43.4237 68.3223 43.4237C76.4888 43.4237 83.1196 50.0442 83.1196 58.2072Z" stroke="white" stroke-width="0.21"></path>
<path d="M60.4439 62.3445L59.9448 62.3777L60.2101 65.5169H65.4956L65.6666 65.1121C65.6666 65.1121 63.4173 61.7094 63.1119 60.0778C63.0578 60.0778 62.5745 57.661 62.7699 56.6053C62.7699 56.6053 63.0753 55.2425 63.0893 55.1273C63.1119 55.0139 63.5482 52.3667 66.5425 51.7769C66.5425 51.7769 69.0693 51.5588 70.2157 53.0578C70.2157 53.0578 74.3565 57.0084 68.7534 65.0527L68.818 65.5413H74.1523L74.5153 62.3707H73.9429C73.9429 62.3707 73.5119 63.7265 72.9658 63.929L70.3448 63.9883L70.6066 63.6655C70.6066 63.6655 76.0491 59.146 72.9064 53.9372C73.0024 53.9931 70.4635 49.8173 64.9372 51.3756C64.9372 51.3756 60.6201 52.8431 60.5346 57.387C60.5346 57.387 60.505 60.8212 63.18 63.0321C63.0927 63.0321 64.0455 63.9534 64.0455 63.9534H61.5083C61.5083 63.9534 60.9098 63.8121 60.4456 62.3428L60.4439 62.3445Z" fill="white"></path>
<path d="M170.689 204.272C177.104 199.901 180.569 192.996 190.048 194.291C191.196 194.542 192.327 194.909 193.438 195.389C195.668 196.34 196.197 197.652 199.343 199.168C200.343 199.467 201.87 200.116 202.917 200.207C206.039 200.482 209.37 199.849 212.863 198.458C214.744 197.71 216.673 196.748 218.644 195.595C216.018 192.258 213.094 190.22 210 188.965C208.965 188.547 207.918 188.213 206.847 187.945C201.73 186.775 197.591 186.343 192.205 187.273C195.44 183.72 199.289 178.79 206.585 178.129C209.094 178.113 225.001 179.982 229.468 165.466C218.664 163.103 214.153 175.78 205.03 173.589C203.762 173.28 202.863 172.8 204.332 171.922C204.332 171.922 205.847 170.98 207.443 170.216C210.633 168.685 211.685 167.099 211.685 167.099C214.861 162.958 215.334 157.69 214.104 149.136C224.977 147.758 229.182 140.6 229.207 129.8C229.215 127.622 229.046 125.298 228.725 122.834C218.632 125.502 215.824 134.489 212.472 142.999C205.069 130.681 217.327 114.699 206.735 100.212C198.586 112.919 208.588 132.343 203.386 125.668C199.223 117.078 194.115 108.388 199.67 99.9872C203.053 93.6024 196.19 89.2766 196.366 80.3336C196.853 80.3859 195.426 80.1503 196.366 80.3336C185.624 88.8665 195.604 107.41 197.513 119.391C192.568 117.735 183.534 112.994 178.988 115.146C187.076 119.531 188.149 129.915 202.093 129.275C210.441 135.072 214.097 163.862 207.576 164.754L207.004 164.054C208.375 155.024 205.979 148.243 201.996 144.571C201.996 149.051 200.062 152.447 198.818 156.224C198.408 157.493 198.071 158.791 197.907 160.189C197.738 161.592 197.748 163.094 198.026 164.745C199.038 168.347 199.438 168.448 199.61 170.116C199.971 173.472 198.117 175.744 196.269 178.263C195.344 179.525 192.948 181.968 190.655 184.001C161.106 211.231 142.468 215.674 103.737 207.338C103.402 207.27 106.056 212.236 108.261 215.269C131.654 219.438 145.248 217.185 165.805 207.23C167.435 206.443 168.922 205.501 170.684 204.271L170.689 204.272Z" fill="white"></path>
</g><defs>
<radialGradient id="paint0_radial_11357_3371" cx="0" cy="0" r="1" gradientUnits="userSpaceOnUse" gradientTransform="translate(130.027 130.026) scale(130.024 130.025)">
<stop stop-color="white"></stop>
<stop offset="0.26" stop-color="#B5E6E2"></stop>
<stop offset="0.63" stop-color="#54C5BD"></stop>
<stop offset="0.88" stop-color="#17B0A6"></stop>
<stop offset="1" stop-color="#00A99D"></stop>
</radialGradient>
<radialGradient id="paint1_radial_11357_3371" cx="0" cy="0" r="1" gradientUnits="userSpaceOnUse" gradientTransform="translate(128.532 130.364) scale(111.448 111.448)">
<stop stop-color="#00A1E4"></stop>
<stop offset="0.07" stop-color="#0096D9"></stop>
<stop offset="0.36" stop-color="#006EAE"></stop>
<stop offset="0.62" stop-color="#00518F"></stop>
<stop offset="0.84" stop-color="#003F7C"></stop>
<stop offset="1" stop-color="#003976"></stop>
</radialGradient>
<clipPath id="clip0_11357_3371">
<rect width="260" height="260" fill="white"></rect>
</clipPath>
</defs></svg>