<svg width="186" height="170" viewBox="0 0 186 170" fill="none" xmlns="http://www.w3.org/2000/svg">
<path d="M136.128 43.3096C136.128 67.2268 116.74 86.6193 92.8182 86.6193C68.8965 86.6193 49.5085 67.2268 49.5085 43.3096C49.5085 19.3925 68.9011 0 92.8182 0C116.735 0 136.128 19.388 136.128 43.3096Z" fill="url(#paint0_radial_10959_3355)"/>
<path d="M123.474 45.6289C123.474 45.6289 125.725 42.4166 125.725 37.1493C125.725 31.8819 123.474 28.6696 123.474 28.6696C123.474 28.6696 117.569 31.4172 98.0992 31.9594C99.0879 16.0572 100.806 5.16253 100.806 5.16253C100.806 5.16253 97.5934 2.91162 92.3306 2.91162C87.0679 2.91162 83.851 5.16253 83.851 5.16253C83.851 5.16253 85.5688 16.0572 86.5575 31.9594C67.0876 31.4126 61.1823 28.6696 61.1823 28.6696C61.1823 28.6696 58.9314 31.8819 58.9314 37.1493C58.9314 42.4166 61.1823 45.6289 61.1823 45.6289C61.1823 45.6289 67.1878 42.8403 87.0542 42.3254C87.0952 43.5967 87.1316 44.8953 87.159 46.203C86.6532 68.2611 83.851 81.6983 83.851 81.6983C83.851 81.6983 87.0633 83.9492 92.3306 83.9492C97.598 83.9492 100.806 81.6983 100.806 81.6983C100.806 81.6983 98.0035 68.2611 97.4977 46.203C97.5251 44.8908 97.5615 43.5967 97.6025 42.3254C117.469 42.8403 123.474 45.6289 123.474 45.6289Z" fill="url(#paint1_radial_10959_3355)"/>
<path d="M121.98 39.9561C122.012 39.8923 122.035 39.833 122.067 39.7692L121.985 39.9378C121.985 39.9378 121.985 39.9469 121.985 39.9561H121.98Z" fill="white"/>
<path d="M99.4571 60.228C99.6667 60.1323 99.8763 60.0366 100.095 59.9409C99.8672 60.0366 99.6348 60.1368 99.407 60.2371C99.4252 60.2371 99.4434 60.2371 99.4571 60.2325V60.228Z" fill="white"/>
<path d="M122.148 39.6098V39.5915C122.121 39.6508 122.094 39.71 122.066 39.7647L122.148 39.6052V39.6098Z" fill="white"/>
<path d="M103.189 32.7294C103.189 32.7294 99.1061 30.9706 94.8412 31.1848C94.8412 31.1848 92.4855 27.5532 92.2212 25.3388L88.2844 31.7315C88.2844 31.7315 84.6255 32.7476 81.2537 32.1872C81.2537 32.1872 84.3384 36.4931 86.8081 37.9603C86.8081 37.9603 86.6896 44.9363 86.4435 45.392C86.4435 45.392 91.7336 41.6465 92.5675 41.5189C92.5675 41.5189 96.9873 43.82 98.1629 45.1641C98.1629 45.1641 98.4636 41.4643 97.7391 37.5593C97.7391 37.5593 99.4888 34.9849 103.198 32.734L103.189 32.7294Z" fill="white"/>
<path d="M81.5135 19.3925C81.5135 23.5936 78.1098 26.9928 73.9133 26.9928C69.7167 26.9928 66.313 23.5936 66.313 19.3925C66.313 15.1914 69.7167 11.7923 73.9133 11.7923C78.1098 11.7923 81.5135 15.1914 81.5135 19.3925Z" stroke="white" stroke-width="0.515299"/>
<path d="M79.0165 19.3925C79.0165 22.7461 76.2962 25.4618 72.9472 25.4618C69.5982 25.4618 66.8779 22.7461 66.8779 19.3925C66.8779 16.0389 69.5936 13.3278 72.9472 13.3278C76.3008 13.3278 79.0165 16.0435 79.0165 19.3925Z" stroke="white" stroke-width="0.515299"/>
<path d="M77.1985 19.3925C77.1985 22.1128 74.9932 24.3227 72.2684 24.3227C69.5436 24.3227 67.3428 22.1173 67.3428 19.3925C67.3428 16.6677 69.5481 14.4669 72.2684 14.4669C74.9886 14.4669 77.1985 16.6723 77.1985 19.3925Z" stroke="white" stroke-width="0.515299"/>
<path d="M69.6437 20.7686L69.4751 20.7777L69.5617 21.8257H71.3205L71.3752 21.689C71.3752 21.689 70.6279 20.5544 70.5231 20.0122C70.5049 20.0122 70.3454 19.2057 70.4092 18.8549C70.4092 18.8549 70.5094 18.3992 70.514 18.3627C70.5231 18.3263 70.6689 17.4423 71.6622 17.2464C71.6622 17.2464 72.5052 17.1735 72.8879 17.6747C72.8879 17.6747 74.2685 18.9915 72.4004 21.6708L72.4232 21.8348H74.2002L74.3232 20.7777H74.1319C74.1319 20.7777 73.9906 21.2288 73.8038 21.2971L72.9289 21.3154L73.0155 21.206C73.0155 21.206 74.829 19.7024 73.781 17.9663C73.8129 17.9846 72.9654 16.5948 71.1246 17.1143C71.1246 17.1143 69.6847 17.6018 69.6574 19.1146C69.6574 19.1146 69.6482 20.2583 70.5368 20.9964C70.5094 20.9964 70.8238 21.3017 70.8238 21.3017H69.9763C69.9763 21.3017 69.7758 21.2561 69.6209 20.764L69.6437 20.7686Z" fill="white"/>
<path d="M106.374 68.0515C108.511 66.5934 109.664 64.2969 112.821 64.7253C113.204 64.8073 113.582 64.9303 113.951 65.0898C114.694 65.4087 114.872 65.8416 115.92 66.3474C116.252 66.4476 116.763 66.6618 117.109 66.6937C118.148 66.7848 119.26 66.5752 120.421 66.1104C121.05 65.8598 121.688 65.5409 122.349 65.1581C121.474 64.0463 120.499 63.3674 119.469 62.9482C119.123 62.807 118.777 62.6976 118.421 62.6065C116.717 62.2192 115.336 62.0734 113.541 62.3832C114.621 61.1985 115.901 59.5582 118.33 59.3349C119.164 59.3303 124.468 59.95 125.953 55.1156C122.353 54.3273 120.85 58.5512 117.811 57.8221C117.387 57.7173 117.091 57.5579 117.578 57.2662C117.578 57.2662 118.084 56.9518 118.612 56.6967C119.674 56.1864 120.025 55.6578 120.025 55.6578C121.082 54.2772 121.242 52.5229 120.832 49.6751C124.454 49.2149 125.853 46.8318 125.862 43.2322C125.862 42.5077 125.807 41.7331 125.702 40.9129C122.34 41.8014 121.406 44.7951 120.289 47.6292C117.824 43.5238 121.907 38.2018 118.38 33.3765C115.664 37.6095 118.995 44.0797 117.264 41.8561C115.879 38.9946 114.174 36.0967 116.024 33.299C117.15 31.1711 114.867 29.7312 114.926 26.7513C114.612 26.6921 115.09 26.7695 114.926 26.7513C111.349 29.5945 114.671 35.7732 115.309 39.7647C113.66 39.2133 110.652 37.6322 109.14 38.3522C111.832 39.8148 112.192 43.2732 116.835 43.059C119.615 44.991 120.836 54.5825 118.663 54.8786L118.471 54.6463C118.927 51.639 118.13 49.3789 116.804 48.1578C116.804 49.6523 116.161 50.7823 115.746 52.0399C115.61 52.4637 115.496 52.8966 115.441 53.3613C115.386 53.8306 115.386 54.3273 115.482 54.8786C115.819 56.077 115.951 56.1135 116.011 56.6693C116.129 57.7857 115.514 58.5421 114.899 59.385C114.589 59.8042 113.792 60.6198 113.031 61.2942C103.184 70.3662 96.9782 71.8471 84.0741 69.0676C83.9602 69.0448 84.8487 70.6988 85.5823 71.7104C93.374 73.1001 97.9032 72.3483 104.752 69.0312C105.294 68.7669 105.79 68.4525 106.378 68.047L106.374 68.0515Z" fill="white"/>
<path d="M8.62046 111.476C8.62046 110.004 9.00004 108.704 9.75918 107.577C10.5183 106.45 11.565 105.576 12.8993 104.955C14.2565 104.311 15.8208 103.988 17.5922 103.988C19.2945 103.988 20.7668 104.288 22.009 104.886C23.2743 105.484 24.252 106.335 24.9421 107.439C25.6552 108.543 26.0348 109.855 26.0808 111.373H21.664C21.618 110.292 21.2269 109.452 20.4907 108.854C19.7546 108.233 18.7654 107.922 17.5232 107.922C16.1659 107.922 15.0732 108.233 14.245 108.854C13.4399 109.452 13.0373 110.28 13.0373 111.338C13.0373 112.236 13.2789 112.949 13.7619 113.478C14.268 113.984 15.0502 114.363 16.1084 114.617L20.0767 115.514C22.2391 115.974 23.8494 116.767 24.9076 117.895C25.9658 118.999 26.4949 120.494 26.4949 122.381C26.4949 123.922 26.1153 125.279 25.3562 126.452C24.597 127.626 23.5158 128.534 22.1126 129.178C20.7323 129.799 19.1105 130.11 17.2471 130.11C15.4758 130.11 13.923 129.811 12.5887 129.213C11.2545 128.592 10.2078 127.729 9.44862 126.625C8.71248 125.521 8.32141 124.221 8.2754 122.726H12.6922C12.7152 123.784 13.1293 124.623 13.9345 125.245C14.7626 125.843 15.8784 126.142 17.2816 126.142C18.7539 126.142 19.9156 125.843 20.7668 125.245C21.641 124.623 22.078 123.807 22.078 122.795C22.078 121.92 21.848 121.23 21.3879 120.724C20.9278 120.195 20.1802 119.827 19.145 119.62L15.1422 118.723C13.0028 118.263 11.381 117.435 10.2768 116.238C9.17257 115.019 8.62046 113.432 8.62046 111.476ZM27.1435 112.615H37.9096V116.135H27.1435V112.615ZM34.6315 129.661H30.4216V107.301H34.6315V129.661ZM59.4547 108.164C57.7983 108.164 56.3836 108.543 55.2103 109.302C54.0371 110.062 53.1399 111.12 52.5188 112.477C51.8977 113.811 51.5871 115.399 51.5871 117.239C51.5871 119.102 51.9207 120.69 52.5878 122.001C53.255 123.289 54.1751 124.267 55.3484 124.934C56.5446 125.601 57.9134 125.935 59.4547 125.935C60.5819 125.935 61.5711 125.797 62.4222 125.521C63.2964 125.222 64.0325 124.796 64.6306 124.244C65.2288 123.669 65.6889 122.979 66.0109 122.173C66.356 121.368 66.5285 120.471 66.5285 119.482V117.274L68.5989 119.378H58.9025V115.479H70.6348V129.661H66.9081L66.5285 125.59L67.0461 126.107C66.678 126.866 66.0914 127.545 65.2863 128.143C64.5041 128.741 63.5724 129.213 62.4912 129.558C61.41 129.88 60.2368 130.041 58.9716 130.041C56.6251 130.041 54.5432 129.512 52.7259 128.454C50.9315 127.372 49.5167 125.866 48.4815 123.933C47.4694 122.001 46.9633 119.735 46.9633 117.136C46.9633 114.582 47.4809 112.328 48.5161 110.372C49.5743 108.394 51.0465 106.841 52.9329 105.714C54.8423 104.587 57.0507 104.023 59.5582 104.023C61.4905 104.023 63.2389 104.38 64.8032 105.093C66.3675 105.783 67.6442 106.761 68.6334 108.026C69.6456 109.291 70.2667 110.786 70.4968 112.512H65.8384C65.4473 111.016 64.6652 109.924 63.4919 109.233C62.3187 108.52 60.9729 108.164 59.4547 108.164ZM78.787 130.11C76.9926 130.11 75.5664 129.627 74.5082 128.661C73.473 127.672 72.9554 126.383 72.9554 124.796C72.9554 123.232 73.496 121.989 74.5772 121.069C75.6814 120.126 77.2457 119.574 79.2701 119.413L84.3771 118.999V118.619C84.3771 117.837 84.2275 117.216 83.9285 116.756C83.6524 116.273 83.2498 115.928 82.7207 115.721C82.1916 115.491 81.5705 115.376 80.8574 115.376C79.6151 115.376 78.6605 115.629 77.9933 116.135C77.3262 116.618 76.9926 117.308 76.9926 118.205H73.404C73.404 116.963 73.7145 115.893 74.3356 114.996C74.9798 114.076 75.8769 113.363 77.0271 112.857C78.2004 112.351 79.5461 112.098 81.0644 112.098C82.6057 112.098 83.9285 112.374 85.0327 112.926C86.1369 113.455 86.9881 114.26 87.5862 115.341C88.1843 116.399 88.4834 117.722 88.4834 119.309V129.661H84.7911L84.4806 127.142C84.1125 128.017 83.3994 128.73 82.3412 129.282C81.306 129.834 80.1212 130.11 78.787 130.11ZM80.1327 126.935C81.444 126.935 82.4792 126.567 83.2383 125.831C84.0205 125.095 84.4116 124.071 84.4116 122.76V121.863L80.8574 122.139C79.5461 122.254 78.6145 122.53 78.0623 122.967C77.5102 123.381 77.2342 123.933 77.2342 124.623C77.2342 125.383 77.4872 125.958 77.9933 126.349C78.4994 126.74 79.2126 126.935 80.1327 126.935ZM95.4831 129.661H91.5838V103.988H95.7936V115.1C96.3457 114.133 97.1509 113.397 98.2091 112.891C99.2673 112.362 100.452 112.098 101.763 112.098C103.397 112.098 104.788 112.489 105.939 113.271C107.112 114.03 108.009 115.1 108.63 116.48C109.274 117.86 109.596 119.459 109.596 121.276C109.596 123.002 109.263 124.531 108.596 125.866C107.928 127.2 106.985 128.247 105.766 129.006C104.547 129.742 103.121 130.11 101.487 130.11C100.222 130.11 99.0718 129.834 98.0366 129.282C97.0244 128.73 96.2652 127.971 95.7591 127.004L95.4831 129.661ZM95.8281 121.069C95.8281 122.081 96.0237 122.99 96.4148 123.795C96.8058 124.577 97.3579 125.187 98.0711 125.624C98.8072 126.038 99.6584 126.245 100.625 126.245C101.614 126.245 102.465 126.027 103.178 125.59C103.891 125.153 104.432 124.543 104.8 123.761C105.168 122.979 105.352 122.081 105.352 121.069C105.352 120.057 105.168 119.16 104.8 118.378C104.432 117.596 103.891 116.986 103.178 116.549C102.465 116.089 101.614 115.859 100.625 115.859C99.6584 115.859 98.8072 116.089 98.0711 116.549C97.3579 116.986 96.8058 117.596 96.4148 118.378C96.0237 119.137 95.8281 120.034 95.8281 121.069ZM122.61 112.546V116.445H121.057C119.516 116.445 118.308 116.859 117.434 117.688C116.56 118.493 116.123 119.723 116.123 121.38V129.661H111.913V112.65H115.881L116.226 116.169H115.812C116.042 115.042 116.583 114.122 117.434 113.409C118.285 112.696 119.39 112.339 120.747 112.339C121.046 112.339 121.345 112.351 121.644 112.374C121.943 112.397 122.265 112.454 122.61 112.546ZM124.424 129.661V112.615H128.634V129.661H124.424ZM126.495 109.199C125.782 109.199 125.172 108.957 124.666 108.474C124.183 107.968 123.941 107.359 123.941 106.645C123.941 105.932 124.183 105.334 124.666 104.851C125.172 104.368 125.782 104.127 126.495 104.127C127.208 104.127 127.806 104.368 128.289 104.851C128.795 105.334 129.048 105.932 129.048 106.645C129.048 107.359 128.795 107.968 128.289 108.474C127.806 108.957 127.208 109.199 126.495 109.199ZM139.574 130.11C137.895 130.11 136.4 129.73 135.089 128.971C133.8 128.189 132.788 127.131 132.052 125.797C131.316 124.439 130.948 122.887 130.948 121.138C130.948 119.367 131.304 117.803 132.018 116.445C132.731 115.088 133.731 114.03 135.02 113.271C136.308 112.489 137.78 112.098 139.436 112.098C141.162 112.098 142.646 112.466 143.888 113.202C145.13 113.915 146.085 114.916 146.752 116.204C147.442 117.492 147.787 119.033 147.787 120.828V122.104L133.156 122.139L133.225 119.447H143.612C143.612 118.274 143.232 117.331 142.473 116.618C141.737 115.905 140.736 115.548 139.471 115.548C138.482 115.548 137.642 115.755 136.952 116.169C136.285 116.583 135.779 117.205 135.434 118.033C135.089 118.861 134.916 119.873 134.916 121.069C134.916 122.91 135.307 124.301 136.089 125.245C136.894 126.188 138.079 126.659 139.643 126.659C140.794 126.659 141.737 126.441 142.473 126.004C143.232 125.567 143.727 124.946 143.957 124.14H147.856C147.488 126.004 146.568 127.464 145.096 128.523C143.646 129.581 141.806 130.11 139.574 130.11ZM154.365 129.661H150.19V103.988H154.365V129.661ZM160.955 108.578L161.335 108.474C161.151 108.612 160.955 108.727 160.748 108.819C160.541 108.888 160.277 108.923 159.955 108.923C159.357 108.923 158.839 108.716 158.402 108.302C157.965 107.888 157.746 107.301 157.746 106.542C157.746 105.783 157.976 105.162 158.436 104.679C158.919 104.196 159.541 103.954 160.3 103.954C161.105 103.954 161.772 104.265 162.301 104.886C162.83 105.484 163.095 106.3 163.095 107.336C163.095 108.785 162.658 110.016 161.784 111.028C160.909 112.04 159.782 112.638 158.402 112.822V111.166C159.138 111.005 159.748 110.706 160.231 110.269C160.714 109.832 160.955 109.268 160.955 108.578ZM163.251 124.485H167.254C167.277 125.222 167.553 125.808 168.082 126.245C168.611 126.682 169.348 126.901 170.291 126.901C171.303 126.901 172.062 126.717 172.568 126.349C173.097 125.981 173.362 125.486 173.362 124.865C173.362 124.451 173.224 124.083 172.948 123.761C172.672 123.439 172.154 123.197 171.395 123.036L168.324 122.311C166.783 121.966 165.632 121.414 164.873 120.655C164.137 119.873 163.769 118.803 163.769 117.446C163.769 116.342 164.057 115.387 164.632 114.582C165.23 113.777 166.035 113.167 167.047 112.753C168.059 112.316 169.221 112.098 170.532 112.098C171.798 112.098 172.913 112.328 173.879 112.788C174.846 113.248 175.593 113.892 176.122 114.72C176.674 115.548 176.962 116.514 176.985 117.619H172.982C172.982 116.882 172.752 116.307 172.292 115.893C171.832 115.456 171.188 115.238 170.36 115.238C169.532 115.238 168.887 115.422 168.427 115.79C167.967 116.158 167.737 116.652 167.737 117.274C167.737 118.217 168.473 118.861 169.946 119.206L173.017 119.931C174.443 120.253 175.513 120.77 176.226 121.483C176.962 122.196 177.33 123.209 177.33 124.52C177.33 125.67 177.031 126.671 176.433 127.522C175.835 128.35 174.995 128.994 173.914 129.454C172.833 129.891 171.591 130.11 170.187 130.11C168.071 130.11 166.38 129.592 165.115 128.557C163.873 127.522 163.251 126.165 163.251 124.485Z" fill="white"/>
<path d="M52.9272 143.569C52.9272 142.833 53.117 142.183 53.4965 141.619C53.8761 141.056 54.3995 140.619 55.0666 140.308C55.7452 139.986 56.5274 139.825 57.413 139.825C58.2642 139.825 59.0003 139.974 59.6215 140.274C60.2541 140.573 60.7429 140.998 61.088 141.55C61.4446 142.102 61.6343 142.758 61.6574 143.517H59.4489C59.4259 142.977 59.2304 142.557 58.8623 142.258C58.4942 141.947 57.9996 141.792 57.3785 141.792C56.6999 141.792 56.1535 141.947 55.7395 142.258C55.3369 142.557 55.1356 142.971 55.1356 143.5C55.1356 143.948 55.2564 144.305 55.4979 144.57C55.751 144.823 56.142 145.012 56.6711 145.139L58.6553 145.588C59.7365 145.818 60.5416 146.214 61.0707 146.778C61.5998 147.33 61.8644 148.078 61.8644 149.021C61.8644 149.792 61.6746 150.47 61.295 151.057C60.9155 151.643 60.3749 152.098 59.6732 152.42C58.9831 152.73 58.1722 152.886 57.2405 152.886C56.3548 152.886 55.5784 152.736 54.9113 152.437C54.2442 152.127 53.7208 151.695 53.3413 151.143C52.9732 150.591 52.7776 149.941 52.7546 149.193H54.9631C54.9746 149.723 55.1816 150.142 55.5842 150.453C55.9983 150.752 56.5561 150.902 57.2578 150.902C57.9939 150.902 58.5748 150.752 59.0003 150.453C59.4374 150.142 59.656 149.734 59.656 149.228C59.656 148.791 59.5409 148.446 59.3109 148.193C59.0809 147.928 58.707 147.744 58.1894 147.641L56.1881 147.192C55.1183 146.962 54.3074 146.548 53.7553 145.95C53.2032 145.34 52.9272 144.547 52.9272 143.569ZM70.9189 152.868C69.6881 152.868 68.6184 152.604 67.7098 152.075C66.8126 151.534 66.111 150.781 65.6049 149.815C65.1103 148.837 64.863 147.687 64.863 146.364C64.863 145.053 65.116 143.908 65.6221 142.931C66.1397 141.953 66.8643 141.194 67.796 140.653C68.7277 140.112 69.8032 139.842 71.0224 139.842C72.0231 139.842 72.9203 140.026 73.7139 140.394C74.5076 140.762 75.1632 141.28 75.6808 141.947C76.1984 142.603 76.5262 143.385 76.6642 144.294H74.335C74.1165 143.557 73.7082 142.988 73.11 142.585C72.5234 142.171 71.8045 141.964 70.9534 141.964C70.1942 141.964 69.5271 142.143 68.952 142.499C68.3884 142.856 67.9513 143.362 67.6407 144.017C67.3302 144.673 67.1749 145.455 67.1749 146.364C67.1749 147.238 67.3302 148.009 67.6407 148.676C67.9513 149.332 68.3884 149.843 68.952 150.211C69.5271 150.568 70.1942 150.746 70.9534 150.746C71.816 150.746 72.5522 150.539 73.1618 150.125C73.7829 149.711 74.197 149.153 74.404 148.452H76.6987C76.5377 149.326 76.1869 150.096 75.6463 150.764C75.1172 151.431 74.4443 151.948 73.6276 152.316C72.8225 152.684 71.9196 152.868 70.9189 152.868ZM82.613 152.661H80.4046V140.049H82.613V145.277H88.2031V140.049H90.4115V152.661H88.2031V147.313H82.613V152.661ZM106.409 146.347C106.409 147.623 106.15 148.756 105.633 149.746C105.115 150.723 104.396 151.488 103.476 152.04C102.556 152.592 101.492 152.868 100.284 152.868C99.0878 152.868 98.0296 152.592 97.1094 152.04C96.1892 151.488 95.4703 150.723 94.9527 149.746C94.4466 148.768 94.1936 147.641 94.1936 146.364C94.1936 145.076 94.4524 143.943 94.97 142.965C95.4876 141.976 96.2007 141.205 97.1094 140.653C98.0296 140.101 99.0935 139.825 100.301 139.825C101.509 139.825 102.567 140.101 103.476 140.653C104.396 141.205 105.115 141.97 105.633 142.948C106.15 143.925 106.409 145.058 106.409 146.347ZM104.097 146.347C104.097 145.45 103.942 144.673 103.631 144.017C103.321 143.362 102.884 142.856 102.32 142.499C101.756 142.131 101.083 141.947 100.301 141.947C99.5306 141.947 98.8577 142.131 98.2826 142.499C97.719 142.856 97.2819 143.362 96.9714 144.017C96.6608 144.673 96.5055 145.45 96.5055 146.347C96.5055 147.244 96.6608 148.026 96.9714 148.693C97.2819 149.349 97.719 149.855 98.2826 150.211C98.8577 150.568 99.5306 150.746 100.301 150.746C101.083 150.746 101.756 150.568 102.32 150.211C102.884 149.843 103.321 149.332 103.631 148.676C103.942 148.009 104.097 147.232 104.097 146.347ZM121.698 146.347C121.698 147.623 121.439 148.756 120.921 149.746C120.404 150.723 119.685 151.488 118.765 152.04C117.844 152.592 116.78 152.868 115.573 152.868C114.377 152.868 113.318 152.592 112.398 152.04C111.478 151.488 110.759 150.723 110.241 149.746C109.735 148.768 109.482 147.641 109.482 146.364C109.482 145.076 109.741 143.943 110.259 142.965C110.776 141.976 111.489 141.205 112.398 140.653C113.318 140.101 114.382 139.825 115.59 139.825C116.798 139.825 117.856 140.101 118.765 140.653C119.685 141.205 120.404 141.97 120.921 142.948C121.439 143.925 121.698 145.058 121.698 146.347ZM119.386 146.347C119.386 145.45 119.23 144.673 118.92 144.017C118.609 143.362 118.172 142.856 117.609 142.499C117.045 142.131 116.372 141.947 115.59 141.947C114.819 141.947 114.146 142.131 113.571 142.499C113.008 142.856 112.571 143.362 112.26 144.017C111.95 144.673 111.794 145.45 111.794 146.347C111.794 147.244 111.95 148.026 112.26 148.693C112.571 149.349 113.008 149.855 113.571 150.211C114.146 150.568 114.819 150.746 115.59 150.746C116.372 150.746 117.045 150.568 117.609 150.211C118.172 149.843 118.609 149.332 118.92 148.676C119.23 148.009 119.386 147.232 119.386 146.347ZM127.704 140.049V152.661H125.496V140.049H127.704ZM125.875 152.661V150.626H132.966V152.661H125.875Z" fill="white"/>
<path d="M14.1208 168.262H11.0773V163.273H14.1208V163.894H11.4431L11.7536 163.625V165.453H13.8861V166.054H11.7536V167.917L11.4431 167.634H14.1208V168.262ZM17.0332 165.771L15.3286 163.273H16.136L16.9159 164.384C17.0263 164.545 17.1229 164.697 17.2057 164.839C17.2931 164.982 17.3736 165.122 17.4473 165.26L18.7654 163.273H19.5453L17.8751 165.764L19.566 168.262H18.7654L17.9994 167.165C17.9028 167.027 17.8084 166.882 17.7164 166.73C17.6244 166.578 17.537 166.431 17.4542 166.289L16.1153 168.262H15.3217L17.0332 165.771ZM22.7974 168.338C22.3235 168.338 21.9094 168.232 21.5552 168.021C21.2009 167.805 20.9248 167.505 20.727 167.124C20.5292 166.737 20.4303 166.286 20.4303 165.771C20.4303 165.256 20.5315 164.805 20.7339 164.418C20.9363 164.032 21.217 163.73 21.5759 163.514C21.9393 163.298 22.358 163.19 22.8319 163.19C23.2092 163.19 23.5497 163.261 23.8533 163.404C24.157 163.542 24.41 163.737 24.6125 163.99C24.8149 164.243 24.946 164.54 25.0058 164.881H24.2812C24.1892 164.554 24.012 164.299 23.7498 164.115C23.4875 163.931 23.1747 163.839 22.8112 163.839C22.4753 163.839 22.1809 163.919 21.9278 164.08C21.6794 164.237 21.4862 164.46 21.3481 164.75C21.2101 165.035 21.1411 165.373 21.1411 165.764C21.1411 166.15 21.2101 166.489 21.3481 166.779C21.4862 167.068 21.6817 167.294 21.9347 167.455C22.1878 167.611 22.4799 167.689 22.8112 167.689C23.1793 167.689 23.4967 167.6 23.7636 167.42C24.035 167.236 24.2168 166.99 24.3088 166.682H25.0265C24.9575 167.013 24.8172 167.303 24.6056 167.551C24.3985 167.8 24.1386 167.993 23.8257 168.131C23.5174 168.269 23.1747 168.338 22.7974 168.338ZM29.5894 168.262H26.546V163.273H29.5894V163.894H26.9117L27.2223 163.625V165.453H29.3548V166.054H27.2223V167.917L26.9117 167.634H29.5894V168.262ZM31.9359 163.273V168.262H31.2596V163.273H31.9359ZM31.3769 168.262V167.634H34.1306V168.262H31.3769ZM36.2318 163.273V168.262H35.5554V163.273H36.2318ZM35.6727 168.262V167.634H38.4264V168.262H35.6727ZM42.8947 168.262H39.8512V163.273H42.8947V163.894H40.217L40.5276 163.625V165.453H42.6601V166.054H40.5276V167.917L40.217 167.634H42.8947V168.262ZM45.2412 168.262H44.5649V163.273H45.2412L47.981 167.413H47.7947V163.273H48.471V168.262H47.7947L45.0549 164.122H45.2412V168.262ZM52.3936 168.338C51.9197 168.338 51.5056 168.232 51.1513 168.021C50.7971 167.805 50.521 167.505 50.3232 167.124C50.1253 166.737 50.0264 166.286 50.0264 165.771C50.0264 165.256 50.1276 164.805 50.3301 164.418C50.5325 164.032 50.8132 163.73 51.172 163.514C51.5355 163.298 51.9542 163.19 52.4281 163.19C52.8054 163.19 53.1458 163.261 53.4495 163.404C53.7531 163.542 54.0062 163.737 54.2086 163.99C54.4111 164.243 54.5422 164.54 54.602 164.881H53.8774C53.7853 164.554 53.6082 164.299 53.346 164.115C53.0837 163.931 52.7709 163.839 52.4074 163.839C52.0715 163.839 51.7771 163.919 51.524 164.08C51.2756 164.237 51.0823 164.46 50.9443 164.75C50.8063 165.035 50.7373 165.373 50.7373 165.764C50.7373 166.15 50.8063 166.489 50.9443 166.779C51.0823 167.068 51.2779 167.294 51.5309 167.455C51.784 167.611 52.0761 167.689 52.4074 167.689C52.7755 167.689 53.0929 167.6 53.3598 167.42C53.6312 167.236 53.813 166.99 53.905 166.682H54.6227C54.5537 167.013 54.4134 167.303 54.2017 167.551C53.9947 167.8 53.7347 167.993 53.4219 168.131C53.1136 168.269 52.7709 168.338 52.3936 168.338ZM59.1856 168.262H56.1421V163.273H59.1856V163.894H56.5079L56.8185 163.625V165.453H58.951V166.054H56.8185V167.917L56.5079 167.634H59.1856V168.262ZM64.1093 163.273V168.262H63.433V163.273H64.1093ZM66.6394 168.262H65.963V163.273H66.6394L69.3792 167.413H69.1929V163.273H69.8692V168.262H69.1929L66.453 164.122H66.6394V168.262ZM74.0087 164.618C74.0087 164.333 74.08 164.082 74.2226 163.866C74.3653 163.65 74.5654 163.482 74.823 163.362C75.0853 163.243 75.3867 163.183 75.7271 163.183C76.0446 163.183 76.3206 163.24 76.5553 163.355C76.7945 163.466 76.9809 163.625 77.1143 163.832C77.2523 164.039 77.3305 164.287 77.3489 164.577H76.6657C76.6473 164.329 76.5553 164.135 76.3896 163.997C76.224 163.859 76.0009 163.79 75.7202 163.79C75.4074 163.79 75.1566 163.864 74.968 164.011C74.7793 164.154 74.685 164.349 74.685 164.598C74.685 164.8 74.7425 164.963 74.8576 165.088C74.9726 165.207 75.1474 165.295 75.3821 165.35L76.2033 165.543C76.6128 165.635 76.9187 165.794 77.1212 166.019C77.3282 166.24 77.4317 166.525 77.4317 166.875C77.4317 167.174 77.3581 167.434 77.2109 167.655C77.0683 167.876 76.8635 168.046 76.5967 168.166C76.3344 168.285 76.0262 168.345 75.6719 168.345C75.336 168.345 75.0393 168.29 74.7816 168.179C74.5286 168.064 74.3285 167.903 74.1812 167.696C74.0386 167.485 73.9581 167.239 73.9397 166.958H74.6298C74.6344 167.197 74.731 167.388 74.9197 167.531C75.1083 167.669 75.359 167.738 75.6719 167.738C76.0032 167.738 76.2654 167.664 76.4587 167.517C76.6565 167.37 76.7554 167.174 76.7554 166.93C76.7554 166.733 76.7002 166.571 76.5898 166.447C76.4794 166.323 76.3045 166.233 76.0653 166.178L75.244 165.992C74.8391 165.9 74.5309 165.739 74.3192 165.509C74.1122 165.274 74.0087 164.977 74.0087 164.618ZM79.6481 163.273V168.262H78.9718V163.273H79.6481ZM80.911 166.482H79.4963V165.874H80.7661C81.102 165.874 81.3596 165.785 81.5391 165.605C81.7185 165.421 81.8082 165.175 81.8082 164.867C81.8082 164.554 81.7185 164.312 81.5391 164.142C81.3596 163.967 81.1112 163.88 80.7937 163.88H79.3444V163.273H80.911C81.2377 163.273 81.5207 163.339 81.7599 163.473C81.9992 163.606 82.1855 163.793 82.3189 164.032C82.4523 164.271 82.5191 164.552 82.5191 164.874C82.5191 165.182 82.4523 165.458 82.3189 165.702C82.1855 165.946 81.9992 166.137 81.7599 166.275C81.5207 166.413 81.2377 166.482 80.911 166.482ZM87.0187 168.262H83.9752V163.273H87.0187V163.894H84.341L84.6516 163.625V165.453H86.7841V166.054H84.6516V167.917L84.341 167.634H87.0187V168.262ZM90.7593 168.338C90.2854 168.338 89.8713 168.232 89.517 168.021C89.1628 167.805 88.8867 167.505 88.6889 167.124C88.491 166.737 88.3921 166.286 88.3921 165.771C88.3921 165.256 88.4934 164.805 88.6958 164.418C88.8982 164.032 89.1789 163.73 89.5378 163.514C89.9012 163.298 90.3199 163.19 90.7938 163.19C91.1711 163.19 91.5115 163.261 91.8152 163.404C92.1188 163.542 92.3719 163.737 92.5743 163.99C92.7768 164.243 92.9079 164.54 92.9677 164.881H92.2431C92.1511 164.554 91.9739 164.299 91.7117 164.115C91.4494 163.931 91.1366 163.839 90.7731 163.839C90.4372 163.839 90.1428 163.919 89.8897 164.08C89.6413 164.237 89.448 164.46 89.31 164.75C89.172 165.035 89.103 165.373 89.103 165.764C89.103 166.15 89.172 166.489 89.31 166.779C89.448 167.068 89.6436 167.294 89.8966 167.455C90.1497 167.611 90.4418 167.689 90.7731 167.689C91.1412 167.689 91.4586 167.6 91.7255 167.42C91.9969 167.236 92.1787 166.99 92.2707 166.682H92.9884C92.9194 167.013 92.7791 167.303 92.5674 167.551C92.3604 167.8 92.1004 167.993 91.7876 168.131C91.4793 168.269 91.1366 168.338 90.7593 168.338ZM95.1842 163.273V168.262H94.5078V163.273H95.1842ZM97.2449 168.262H96.541L98.3629 163.273H99.1152L100.944 168.262H100.233L99.7846 167.02H97.6866L97.2449 168.262ZM98.6528 164.349L97.8936 166.433H99.5845L98.8184 164.349C98.8046 164.299 98.7885 164.248 98.7701 164.197C98.7517 164.142 98.7402 164.096 98.7356 164.059C98.7264 164.096 98.7149 164.142 98.7011 164.197C98.6873 164.248 98.6712 164.299 98.6528 164.349ZM102.974 163.273V168.262H102.297V163.273H102.974ZM102.415 168.262V167.634H105.168V168.262H102.415ZM112.214 168.262H109.17V163.273H112.214V163.894H109.536L109.847 163.625V165.453H111.979V166.054H109.847V167.917L109.536 167.634H112.214V168.262ZM115.534 168.262H113.884V163.273H115.506C116.003 163.273 116.438 163.378 116.81 163.59C117.188 163.797 117.48 164.089 117.687 164.467C117.898 164.839 118.004 165.274 118.004 165.771C118.004 166.263 117.901 166.698 117.694 167.075C117.487 167.448 117.197 167.74 116.824 167.952C116.456 168.159 116.026 168.262 115.534 168.262ZM114.56 163.59V167.952L114.243 167.634H115.485C115.858 167.634 116.178 167.558 116.445 167.407C116.716 167.255 116.925 167.041 117.073 166.765C117.224 166.484 117.3 166.153 117.3 165.771C117.3 165.384 117.224 165.051 117.073 164.77C116.925 164.49 116.714 164.273 116.438 164.122C116.166 163.97 115.839 163.894 115.458 163.894H114.243L114.56 163.59ZM119.52 166.489V163.273H120.197V166.447C120.197 166.848 120.302 167.156 120.514 167.372C120.73 167.584 121.036 167.689 121.432 167.689C121.823 167.689 122.124 167.581 122.336 167.365C122.548 167.149 122.653 166.843 122.653 166.447V163.273H123.337V166.489C123.337 166.871 123.259 167.199 123.102 167.476C122.95 167.752 122.732 167.966 122.446 168.117C122.161 168.269 121.823 168.345 121.432 168.345C121.041 168.345 120.7 168.272 120.411 168.124C120.125 167.972 119.904 167.759 119.748 167.482C119.596 167.202 119.52 166.871 119.52 166.489ZM127.222 168.338C126.748 168.338 126.334 168.232 125.979 168.021C125.625 167.805 125.349 167.505 125.151 167.124C124.953 166.737 124.855 166.286 124.855 165.771C124.855 165.256 124.956 164.805 125.158 164.418C125.361 164.032 125.641 163.73 126 163.514C126.364 163.298 126.782 163.19 127.256 163.19C127.634 163.19 127.974 163.261 128.278 163.404C128.581 163.542 128.834 163.737 129.037 163.99C129.239 164.243 129.37 164.54 129.43 164.881H128.706C128.614 164.554 128.436 164.299 128.174 164.115C127.912 163.931 127.599 163.839 127.236 163.839C126.9 163.839 126.605 163.919 126.352 164.08C126.104 164.237 125.91 164.46 125.772 164.75C125.634 165.035 125.565 165.373 125.565 165.764C125.565 166.15 125.634 166.489 125.772 166.779C125.91 167.068 126.106 167.294 126.359 167.455C126.612 167.611 126.904 167.689 127.236 167.689C127.604 167.689 127.921 167.6 128.188 167.42C128.459 167.236 128.641 166.99 128.733 166.682H129.451C129.382 167.013 129.242 167.303 129.03 167.551C128.823 167.8 128.563 167.993 128.25 168.131C127.942 168.269 127.599 168.338 127.222 168.338ZM130.995 168.262H130.291L132.113 163.273H132.866L134.694 168.262H133.984L133.535 167.02H131.437L130.995 168.262ZM132.403 164.349L131.644 166.433H133.335L132.569 164.349C132.555 164.299 132.539 164.248 132.521 164.197C132.502 164.142 132.491 164.096 132.486 164.059C132.477 164.096 132.465 164.142 132.452 164.197C132.438 164.248 132.422 164.299 132.403 164.349ZM137.294 163.583V168.262H136.618V163.583H137.294ZM135.113 163.894V163.273H138.792V163.894H135.113ZM140.838 163.273V168.262H140.162V163.273H140.838ZM147.191 165.764C147.191 166.27 147.088 166.719 146.881 167.11C146.678 167.496 146.395 167.8 146.032 168.021C145.673 168.237 145.257 168.345 144.783 168.345C144.318 168.345 143.904 168.237 143.541 168.021C143.182 167.8 142.901 167.496 142.699 167.11C142.496 166.723 142.395 166.275 142.395 165.764C142.395 165.258 142.496 164.812 142.699 164.425C142.906 164.039 143.189 163.735 143.548 163.514C143.906 163.293 144.32 163.183 144.79 163.183C145.264 163.183 145.68 163.293 146.039 163.514C146.398 163.735 146.678 164.039 146.881 164.425C147.088 164.812 147.191 165.258 147.191 165.764ZM146.481 165.764C146.481 165.378 146.409 165.039 146.267 164.75C146.129 164.46 145.933 164.237 145.68 164.08C145.427 163.919 145.13 163.839 144.79 163.839C144.454 163.839 144.159 163.919 143.906 164.08C143.653 164.237 143.456 164.46 143.313 164.75C143.175 165.039 143.106 165.378 143.106 165.764C143.106 166.15 143.175 166.489 143.313 166.779C143.456 167.068 143.653 167.294 143.906 167.455C144.159 167.616 144.454 167.696 144.79 167.696C145.13 167.696 145.427 167.616 145.68 167.455C145.933 167.289 146.129 167.061 146.267 166.772C146.409 166.482 146.481 166.146 146.481 165.764ZM149.423 168.262H148.747V163.273H149.423L152.163 167.413H151.976V163.273H152.653V168.262H151.976L149.237 164.122H149.423V168.262ZM160.788 163.273L157.62 167.289V166.275L159.981 163.273H160.788ZM157.758 163.273V168.262H157.082V163.273H157.758ZM158.635 165.909L159.077 165.329L160.816 168.262H160.029L158.635 165.909ZM161.611 166.73V166.15H167.249V166.73H161.611ZM169.256 163.88H168.207V163.273H169.904V168.262H169.256V163.88ZM174.854 168.255L171.487 168.262V167.745L173.095 166.358C173.297 166.187 173.465 166.033 173.598 165.895C173.732 165.757 173.838 165.631 173.916 165.516C173.994 165.396 174.049 165.279 174.081 165.164C174.114 165.049 174.13 164.924 174.13 164.791C174.13 164.478 174.045 164.234 173.874 164.059C173.709 163.88 173.474 163.79 173.17 163.79C172.862 163.79 172.614 163.896 172.425 164.108C172.241 164.315 172.147 164.595 172.142 164.95H171.466C171.475 164.595 171.551 164.285 171.694 164.018C171.836 163.751 172.034 163.546 172.287 163.404C172.545 163.257 172.841 163.183 173.177 163.183C173.513 163.183 173.803 163.247 174.047 163.376C174.291 163.505 174.479 163.687 174.613 163.921C174.751 164.151 174.82 164.427 174.82 164.75C174.82 164.924 174.797 165.092 174.751 165.253C174.705 165.41 174.631 165.566 174.53 165.723C174.433 165.874 174.307 166.033 174.15 166.199C173.994 166.36 173.805 166.537 173.585 166.73L172.28 167.862L172.052 167.627H174.854V168.255Z" fill="white"/>
<defs>
<radialGradient id="paint0_radial_10959_3355" cx="0" cy="0" r="1" gradientUnits="userSpaceOnUse" gradientTransform="translate(92.8301 43.3187) scale(43.3194)">
<stop stop-color="white"/>
<stop offset="0.26" stop-color="#B5E6E2"/>
<stop offset="0.63" stop-color="#54C5BD"/>
<stop offset="0.88" stop-color="#17B0A6"/>
<stop offset="1" stop-color="#00A99D"/>
</radialGradient>
<radialGradient id="paint1_radial_10959_3355" cx="0" cy="0" r="1" gradientUnits="userSpaceOnUse" gradientTransform="translate(92.3306 43.4281) scale(37.1265 37.1265)">
<stop stop-color="#00A1E4"/>
<stop offset="0.07" stop-color="#0096D9"/>
<stop offset="0.36" stop-color="#006EAE"/>
<stop offset="0.62" stop-color="#00518F"/>
<stop offset="0.84" stop-color="#003F7C"/>
<stop offset="1" stop-color="#003976"/>
</radialGradient>
</defs>
</svg>
