<svg width="197" height="115" viewBox="0 0 197 115" fill="none" xmlns="http://www.w3.org/2000/svg">
<path d="M0 10C0 4.47715 4.47715 0 10 0H186.667C192.189 0 196.667 4.47715 196.667 10V104.319C196.667 109.841 192.189 114.319 186.667 114.319H10C4.47715 114.319 0 109.841 0 104.319V10Z" fill="#003976"/>
<path d="M107.005 30.4249C106.583 30.0031 105.833 30.0031 105.412 30.4249L104.052 31.7843L106.208 33.9406L107.568 32.5812C108.037 32.1593 108.037 31.4093 107.568 30.9874L107.005 30.4249ZM96.1772 39.6593C96.0366 39.7999 95.9429 39.9874 95.896 40.1749L95.0991 42.8937L97.8179 42.0968C98.0054 42.0499 98.1929 41.9562 98.3335 41.8156L104.615 35.5343L102.458 33.3781L96.1772 39.6593ZM103.818 28.8312C105.13 27.5187 107.287 27.5187 108.599 28.8312L109.162 29.3937C110.474 30.7062 110.474 32.8624 109.162 34.1749L99.9272 43.4093C99.5054 43.8312 98.9897 44.1124 98.4741 44.2531L93.7866 45.6124C93.3647 45.7062 92.9429 45.6124 92.6616 45.3312C92.3804 45.0499 92.2866 44.6281 92.3804 44.2062L93.7397 39.5187C93.8804 39.0031 94.1616 38.4874 94.5835 38.0656L103.818 28.8312ZM90.4585 30.6593H95.7085C96.3179 30.6593 96.8335 31.1749 96.8335 31.7843C96.8335 32.3937 96.3179 32.9093 95.7085 32.9093H90.4585C89.4272 32.9093 88.5835 33.7531 88.5835 34.7843V47.5343C88.5835 48.5656 89.4272 49.4093 90.4585 49.4093H103.208C104.24 49.4093 105.083 48.5656 105.083 47.5343V42.2843C105.083 41.6749 105.599 41.1593 106.208 41.1593C106.818 41.1593 107.333 41.6749 107.333 42.2843V47.5343C107.333 49.8312 105.505 51.6593 103.208 51.6593H90.4585C88.1616 51.6593 86.3335 49.8312 86.3335 47.5343V34.7843C86.3335 32.4874 88.1616 30.6593 90.4585 30.6593Z" fill="#35C9BB"/>
<path d="M48.2447 83.6593H45.9407V70.5013H48.2447V75.9553H54.0767V70.5013H56.3807V83.6593H54.0767V78.0793H48.2447V83.6593ZM58.4365 79.1953C58.4365 78.2713 58.6405 77.4613 59.0485 76.7653C59.4565 76.0573 60.0205 75.5053 60.7405 75.1093C61.4605 74.7133 62.2765 74.5153 63.1885 74.5153C64.1125 74.5153 64.9285 74.7133 65.6365 75.1093C66.3565 75.5053 66.9205 76.0573 67.3285 76.7653C67.7365 77.4613 67.9405 78.2713 67.9405 79.1953C67.9405 80.1193 67.7365 80.9353 67.3285 81.6433C66.9205 82.3393 66.3565 82.8853 65.6365 83.2813C64.9285 83.6773 64.1125 83.8753 63.1885 83.8753C62.2765 83.8753 61.4605 83.6773 60.7405 83.2813C60.0205 82.8853 59.4565 82.3393 59.0485 81.6433C58.6405 80.9353 58.4365 80.1193 58.4365 79.1953ZM60.6325 79.1953C60.6325 79.7353 60.7405 80.2093 60.9565 80.6173C61.1845 81.0253 61.4845 81.3433 61.8565 81.5713C62.2405 81.7993 62.6845 81.9133 63.1885 81.9133C63.6925 81.9133 64.1365 81.7993 64.5205 81.5713C64.9045 81.3433 65.2045 81.0253 65.4205 80.6173C65.6365 80.2093 65.7445 79.7353 65.7445 79.1953C65.7445 78.6433 65.6365 78.1693 65.4205 77.7733C65.2045 77.3653 64.9045 77.0473 64.5205 76.8193C64.1365 76.5913 63.6925 76.4773 63.1885 76.4773C62.6845 76.4773 62.2405 76.5913 61.8565 76.8193C61.4845 77.0473 61.1845 77.3653 60.9565 77.7733C60.7405 78.1693 60.6325 78.6433 60.6325 79.1953ZM71.2213 83.6593L68.3413 74.7673H70.6273L71.7973 78.5833C71.8933 78.9313 71.9893 79.2973 72.0853 79.6813C72.1813 80.0653 72.2653 80.4673 72.3373 80.8873C72.3973 80.5993 72.4513 80.3353 72.4993 80.0953C72.5593 79.8553 72.6253 79.6213 72.6973 79.3933C72.7693 79.1533 72.8533 78.8833 72.9493 78.5833L74.1733 74.7673H76.4053L77.5933 78.5833C77.6173 78.6673 77.6533 78.8113 77.7013 79.0153C77.7613 79.2073 77.8213 79.4173 77.8813 79.6453C77.9413 79.8733 77.9953 80.1013 78.0433 80.3293C78.1033 80.5453 78.1453 80.7313 78.1693 80.8873C78.2173 80.6593 78.2773 80.4013 78.3493 80.1133C78.4213 79.8253 78.4933 79.5493 78.5653 79.2853C78.6493 79.0093 78.7153 78.7753 78.7633 78.5833L79.9513 74.7673H82.2733L79.1953 83.6593H77.1433L75.9193 79.8073C75.7393 79.2193 75.5953 78.7213 75.4873 78.3133C75.3793 77.8933 75.3073 77.5693 75.2713 77.3413C75.2353 77.5573 75.1693 77.8453 75.0733 78.2053C74.9773 78.5653 74.8153 79.1113 74.5873 79.8433L73.3633 83.6593H71.2213ZM87.5726 74.7673H93.1886V76.6033H87.5726V74.7673ZM91.4786 83.6593H89.2826V71.9953H91.4786V83.6593ZM93.9619 79.1953C93.9619 78.2713 94.1659 77.4613 94.5739 76.7653C94.9819 76.0573 95.5459 75.5053 96.2659 75.1093C96.9859 74.7133 97.8019 74.5153 98.7139 74.5153C99.6379 74.5153 100.454 74.7133 101.162 75.1093C101.882 75.5053 102.446 76.0573 102.854 76.7653C103.262 77.4613 103.466 78.2713 103.466 79.1953C103.466 80.1193 103.262 80.9353 102.854 81.6433C102.446 82.3393 101.882 82.8853 101.162 83.2813C100.454 83.6773 99.6379 83.8753 98.7139 83.8753C97.8019 83.8753 96.9859 83.6773 96.2659 83.2813C95.5459 82.8853 94.9819 82.3393 94.5739 81.6433C94.1659 80.9353 93.9619 80.1193 93.9619 79.1953ZM96.1579 79.1953C96.1579 79.7353 96.2659 80.2093 96.4819 80.6173C96.7099 81.0253 97.0099 81.3433 97.3819 81.5713C97.7659 81.7993 98.2099 81.9133 98.7139 81.9133C99.2179 81.9133 99.6619 81.7993 100.046 81.5713C100.43 81.3433 100.73 81.0253 100.946 80.6173C101.162 80.2093 101.27 79.7353 101.27 79.1953C101.27 78.6433 101.162 78.1693 100.946 77.7733C100.73 77.3653 100.43 77.0473 100.046 76.8193C99.6619 76.5913 99.2179 76.4773 98.7139 76.4773C98.2099 76.4773 97.7659 76.5913 97.3819 76.8193C97.0099 77.0473 96.7099 77.3653 96.4819 77.7733C96.2659 78.1693 96.1579 78.6433 96.1579 79.1953ZM118.554 83.6593H110.382V70.5013H118.554V72.6253H111.876L112.686 71.8873V76.0093H117.942V78.0433H112.686V82.2733L111.876 81.5353H118.554V83.6593ZM122.906 83.6593H120.71V74.7673H122.744L122.924 75.9193C123.2 75.4753 123.59 75.1273 124.094 74.8753C124.61 74.6233 125.168 74.4973 125.768 74.4973C126.884 74.4973 127.724 74.8273 128.288 75.4873C128.864 76.1473 129.152 77.0473 129.152 78.1873V83.6593H126.956V78.7093C126.956 77.9653 126.788 77.4133 126.452 77.0533C126.116 76.6813 125.66 76.4953 125.084 76.4953C124.4 76.4953 123.866 76.7113 123.482 77.1433C123.098 77.5753 122.906 78.1513 122.906 78.8713V83.6593ZM136.89 74.7313V76.7653H136.08C135.276 76.7653 134.646 76.9813 134.19 77.4133C133.734 77.8333 133.506 78.4753 133.506 79.3393V83.6593H131.31V74.7853H133.38L133.56 76.6213H133.344C133.464 76.0333 133.746 75.5533 134.19 75.1813C134.634 74.8093 135.21 74.6233 135.918 74.6233C136.074 74.6233 136.23 74.6293 136.386 74.6413C136.542 74.6533 136.71 74.6833 136.89 74.7313ZM137.556 79.1953C137.556 78.2713 137.76 77.4613 138.168 76.7653C138.576 76.0573 139.14 75.5053 139.86 75.1093C140.58 74.7133 141.396 74.5153 142.308 74.5153C143.232 74.5153 144.048 74.7133 144.756 75.1093C145.476 75.5053 146.04 76.0573 146.448 76.7653C146.856 77.4613 147.06 78.2713 147.06 79.1953C147.06 80.1193 146.856 80.9353 146.448 81.6433C146.04 82.3393 145.476 82.8853 144.756 83.2813C144.048 83.6773 143.232 83.8753 142.308 83.8753C141.396 83.8753 140.58 83.6773 139.86 83.2813C139.14 82.8853 138.576 82.3393 138.168 81.6433C137.76 80.9353 137.556 80.1193 137.556 79.1953ZM139.752 79.1953C139.752 79.7353 139.86 80.2093 140.076 80.6173C140.304 81.0253 140.604 81.3433 140.976 81.5713C141.36 81.7993 141.804 81.9133 142.308 81.9133C142.812 81.9133 143.256 81.7993 143.64 81.5713C144.024 81.3433 144.324 81.0253 144.54 80.6173C144.756 80.2093 144.864 79.7353 144.864 79.1953C144.864 78.6433 144.756 78.1693 144.54 77.7733C144.324 77.3653 144.024 77.0473 143.64 76.8193C143.256 76.5913 142.812 76.4773 142.308 76.4773C141.804 76.4773 141.36 76.5913 140.976 76.8193C140.604 77.0473 140.304 77.3653 140.076 77.7733C139.86 78.1693 139.752 78.6433 139.752 79.1953ZM151.014 83.6593H148.836V70.2673H151.014V83.6593Z" fill="white"/>
</svg>
