<svg width="20" height="20" viewBox="0 0 20 20" fill="none" xmlns="http://www.w3.org/2000/svg">
<path d="M13.5 8.5C13.5 5.75 11.25 3.5 8.5 3.5C5.75 3.5 3.5 5.75 3.5 8.5C3.5 11.25 5.75 13.5 8.5 13.5C11.25 13.5 13.5 11.25 13.5 8.5ZM12.5312 13.5938C11.4375 14.4688 10.0312 15 8.5 15C4.90625 15 2 12.0938 2 8.5C2 4.90625 4.90625 2 8.5 2C12.0938 2 15 4.90625 15 8.5C15 10.0312 14.4688 11.4375 13.5938 12.5312L17.7812 16.7188C18.0625 17 18.0625 17.5 17.7812 17.7812C17.5 18.0625 17 18.0625 16.7188 17.7812L12.5312 13.5938Z" fill="#1C3666"/>
</svg>
